<svg xmlns="http://www.w3.org/2000/svg" width="30.1" height="31.3" viewBox="0 0 30.1 31.3"><style type="text/css">.st0{fill:url(#SVGID_1_);} .st1{fill:#98B53C;}</style><radialGradient id="SVGID_1_" cx="21.622" cy="14.852" r="3.999" gradientTransform="matrix(.7 -.714 .538 .528 -1.518 22.44)" gradientUnits="userSpaceOnUse"><stop offset=".078" stop-color="#fff"/><stop offset=".51" stop-color="#F46E7D"/></radialGradient><path class="st0" d="M20.4 9.3s-2.1-1.2-3.4 2.6c0 0-.2 4.9-6.6 7.9-4.7 2.2-4.5 4.6-4.1 5.7.1.3.5.4.8.1.5-.6 1.4-1.4 2.1-1.2 1 .3 6.2 0 11.1-3.4l5-7s.2-2.2-2.4-3.7l-2.5-1z"/><path class="st1" d="M22.4 10.6c.3 0 .9.2 1.9 1.5 0 0 .3.4.8.5 0 0-2.1-2.4-2.1-2.7 0-.3.1-2.8 1.3-4.1.1-.1.1-.3-.1-.4h-.1c-.3-.1-.6.1-.8.4l-1.1 2.7c-.2.4-.6.7-1 .6l-1-.1s-.2.5 1.6 1.5c.2.1.4.1.6.1z"/></svg>