<?xml version="1.0" encoding="utf-8"?>
<!-- Generator: Adobe Illustrator 18.1.1, SVG Export Plug-In . SVG Version: 6.00 Build 0)  -->
<!DOCTYPE svg PUBLIC "-//W3C//DTD SVG 1.1//EN" "http://www.w3.org/Graphics/SVG/1.1/DTD/svg11.dtd">
<svg version="1.1" id="Layer_1" xmlns="http://www.w3.org/2000/svg" xmlns:xlink="http://www.w3.org/1999/xlink" x="0px" y="0px"
	 width="30.1px" height="31.3px" viewBox="0 0 30.1 31.3" style="enable-background:new 0 0 30.1 31.3;" xml:space="preserve">
<style type="text/css">
	.st0{fill:url(#SVGID_1_);}
	.st1{fill:#98B53C;}
</style>
<g>
	
		<radialGradient id="SVGID_1_" cx="21.6215" cy="14.8521" r="3.9988" gradientTransform="matrix(0.7003 -0.7138 0.5384 0.5283 -1.5176 22.4404)" gradientUnits="userSpaceOnUse">
		<stop  offset="7.752711e-02" style="stop-color:#FFFFFF"/>
		<stop  offset="0.5101" style="stop-color:#F46E7D"/>
	</radialGradient>
	<path class="st0" d="M20.4,9.3c0,0-2.1-1.2-3.4,2.6c0,0-0.2,4.9-6.6,7.9c-4.7,2.2-4.5,4.6-4.1,5.7c0.1,0.3,0.5,0.4,0.8,0.1
		c0.5-0.6,1.4-1.4,2.1-1.2c1,0.3,6.2,0,11.1-3.4s5-7,5-7s0.2-2.2-2.4-3.7S20.4,9.3,20.4,9.3z"/>
	<path class="st1" d="M22.4,10.6c0.3,0,0.9,0.2,1.9,1.5c0,0,0.3,0.4,0.8,0.5c0,0-2.1-2.4-2.1-2.7c0-0.3,0.1-2.8,1.3-4.1
		c0.1-0.1,0.1-0.3-0.1-0.4l-0.1,0c-0.3-0.1-0.6,0.1-0.8,0.4l-1.1,2.7c-0.2,0.4-0.6,0.7-1,0.6L20.2,9c0,0-0.2,0.5,1.6,1.5
		C22,10.6,22.2,10.6,22.4,10.6z"/>
</g>
<g>
</g>
<g>
</g>
<g>
</g>
<g>
</g>
<g>
</g>
<g>
</g>
</svg>
