<svg xmlns="http://www.w3.org/2000/svg" width="216" height="144" viewBox="0 0 216 144"><style type="text/css">.st0{fill:#E6E7E8;} .st1{fill:#F46E7D;} .st2{fill:none;} .st3{fill:#7ED0EF;}</style><path class="st0" d="M211.8 105.7s-88.5.5-124.9.3h-1.7c-28.2-1.4-29.4-54.8-29.4-54.8s3.4-12.1 22.4-9.9c0 0 21.6-11.8 28.3-9 6.6 2.7 8.5 10.5 8.8 17.4 9.3 6.2 24.5 1.6 24.5 1.6 31.1-13.7 45.9-12.8 62.8 0 16.8 12.7 9.2 54.4 9.2 54.4zm-156-54.5l-17.5 33.2s-8.1 5.9-14.3 2.9c0 0 5.4 4.7 9.4 3.8 0 0-12 26.3-24.9 14-4.5-4.3-1.1-8.9.3-11.2.9-1.5 1.9-2.2 8-6.1 0 0-7.7.7-7.8.7-4.1 3.3-3.8 3.1-4.5 4.7-2.2 4.8-4.1 13.2 2.8 16.5 18.4 8.9 27.2-8 35.9-19.4l12.5.2s3.7 14.5 16.9 15.3c2 .1 6.4.2 12.5.3-28.1-1.5-29.3-54.9-29.3-54.9zm-11.1 33.7l8-17.9s1 15 2.6 17.9h-10.6z"/><path class="st1" d="M55.7 51.6l-17.1 33v.1h-.1c-1.1.8-2.2 1.4-3.3 2l-.9.4-.9.4-1.8.6-.9.2c-.3.1-.6.1-1 .2-.3 0-.6.1-1 .1h-1c-.3 0-.7 0-1-.1-.3 0-.7-.1-1-.2-.3-.1-.7-.1-1-.3l-.9-.4.4-.7c1.3 1.1 2.8 2 4.3 2.7l.6.3c.2.1.4.2.6.2.4.1.8.3 1.2.3.2.1.4.1.6.1.2 0 .4.1.6 0h.6l.6-.1.9-.1-.4.8c-1.2 2.5-2.5 4.8-4 7.1-1.5 2.2-3.2 4.4-5.2 6.3-1 .9-2.1 1.8-3.3 2.5-1.2.7-2.5 1.3-3.9 1.6-1.4.3-2.9.3-4.3-.1s-2.6-1.1-3.8-1.9c-.6-.4-1.1-.9-1.6-1.4l-.7-.8c-.2-.3-.5-.6-.6-.9-.8-1.3-1.1-2.8-.9-4.3.2-1.5.8-2.8 1.5-4 .3-.6.7-1.2 1-1.7l.3-.4.3-.5c.2-.3.5-.6.8-.8 1.1-1 2.2-1.7 3.3-2.4l3.4-2.2.1-.1h.1c.1-.2-.5 1.6-.3.8v.3c0 .1.2.3.3.3h.2-.1-.1-.2l-1 .1-2 .2-2 .2-1 .1h-1.1c-.2 0-.3-.1-.4-.2l1 .1c-1.1.9-2.4 1.8-3.3 2.8-.2.2-.4.5-.5.7-.1.3-.3.6-.4 1-.3.7-.6 1.3-.8 2-.9 2.7-1.4 5.6-.8 8.3.3 1.3.9 2.5 1.8 3.5.2.3.5.5.7.7l.8.6c.3.2.6.4.9.5l1 .4 2 .8 2.1.6c1.4.4 2.8.5 4.2.5 2.8 0 5.6-.8 8-2.2 2.4-1.4 4.6-3.3 6.6-5.5 3.9-4.3 7.1-9.3 10.7-14l.3-.4h.6l12.5.1h.8l.2.8c.2.6.4 1.4.7 2 .3.7.6 1.4.9 2 .3.7.7 1.3 1.1 1.9l1.2 1.8c.4.6.9 1.1 1.4 1.7.5.5 1 1 1.6 1.5l.9.7.9.6c.6.4 1.2.8 1.9 1l1 .4 1 .3 1 .3c.4.1.7.1 1.1.1l1.1.1h1.1l2.3.1 9.2.3-.1 2-2.2-.2c-.7-.1-1.4-.3-2.2-.5-.7-.1-1.4-.4-2.1-.7l-1-.4c-.3-.1-.7-.3-1-.5-1.3-.6-2.6-1.5-3.7-2.3l-1.7-1.4-1.5-1.5c-1-1.1-1.9-2.2-2.7-3.4l-1.2-1.8c-.4-.6-.8-1.2-1.1-1.9-.7-1.3-1.3-2.5-1.9-3.8-.6-1.3-1.1-2.6-1.6-4-.5-1.3-.9-2.7-1.3-4-.4-1.4-.8-2.7-1.1-4.1-.3-1.4-.7-2.8-.9-4.1l-.8-4.2c-1-5.6-1.5-11.1-1.6-16.6zm.2-.4c.2 2.8.5 5.6.8 8.4.4 2.8.8 5.6 1.4 8.3l.9 4.1 1 4.1c.4 1.4.8 2.7 1.2 4l1.4 3.9c.5 1.3 1.1 2.6 1.6 3.8.6 1.2 1.2 2.5 1.9 3.7.3.6.7 1.2 1.1 1.8.4.6.7 1.2 1.2 1.7.8 1.1 1.7 2.2 2.6 3.2l1.5 1.4 1.6 1.3c1.1.8 2.2 1.5 3.4 2.1l.9.4.9.3c.6.2 1.3.5 1.9.6l2 .4 2 .2-.1 2-9.2-.1h-3.5l-1.2-.1-1.2-.2-1.2-.3-1.2-.3-1.1-.5c-.8-.3-1.5-.7-2.2-1.1-.4-.2-.7-.4-1-.7l-1-.7c-.6-.5-1.2-1.1-1.8-1.7-.5-.6-1.1-1.2-1.6-1.9-.5-.6-.9-1.3-1.4-2l-1.2-2.1c-.4-.7-.7-1.5-1-2.2-.3-.8-.6-1.5-.8-2.3l1.1.8-12.5-.2.9-.4c-3.6 4.6-6.8 9.7-11 14.1-2.1 2.2-4.4 4.2-7.1 5.7-2.7 1.5-5.8 2.4-8.9 2.4-1.6 0-3.1-.2-4.6-.6-.8-.2-1.5-.4-2.2-.6-.7-.3-1.5-.5-2.1-.8l-1-.5-1.1-.6c-.4-.2-.7-.4-1-.7-.3-.2-.6-.5-.9-.8-1.1-1.2-1.9-2.7-2.2-4.3-.3-1.6-.3-3.2-.1-4.7.2-1.5.6-3 1.1-4.5l.9-2.1.5-1.1c.2-.4.5-.8.8-1.1 1.2-1.1 2.3-2 3.5-2.9l1 .1c-.1-.1-.2-.2-.3-.2h-.2.1.2.5l1-.1 2-.2 2-.2 1-.1h.8c.2 0 .4.2.6.3.1.1.1.2.1.2h.1c.3-.7-.3 1-.3.8h-.1l-.1.1-3.4 2.2c-1.1.7-2.2 1.5-3.2 2.3l-.6.6-.3.3-.3.4c-.4.6-.7 1.1-1 1.7-.7 1.1-1.1 2.3-1.3 3.5-.1 1.2.1 2.5.7 3.5.1.3.3.5.5.7.2.2.4.5.7.7.4.4.9.9 1.4 1.3 1 .8 2.2 1.4 3.3 1.7 1.2.4 2.5.4 3.7.1 2.5-.5 4.7-2 6.6-3.8 1.9-1.8 3.6-3.9 5.1-6 1.5-2.2 2.8-4.5 4-6.9l.5.6-.7.1h-.7c-.2 0-.5 0-.7-.1l-.7-.1c-.4-.1-.9-.2-1.3-.4l-.6-.3-.6-.3c-.8-.4-1.6-.8-2.3-1.3-.7-.5-1.4-1-2.1-1.6l-1.8-1.5 2.2.9.8.3c.3.1.6.2.9.2.3.1.6.2.9.2l.9.1h.9l.9-.1c.3 0 .6-.1.9-.2l.9-.2c.6-.2 1.2-.3 1.8-.6l.9-.3c.3-.1.6-.2.9-.4 1.1-.5 2.2-1.2 3.3-1.9l-.1.4 17.8-33.4.1.3zm-11.4 33.8l3.8-9.2c1.2-3 2.5-6 3.8-9.1l1.1-2.7.3 3c.3 3 .6 6 1.1 9 .2 1.5.5 3 .7 4.4.1.7.2 1.5.4 2.2.1.4.2.7.2 1 .1.4.2.6.3.9l.5 1.6-1.4-.1c-1.8-.1-3.6-.2-5.3-.3l-2.7-.3-2.7-.3-.1-.1zm.4-.2l2.5-.3 2.7-.3c1.8-.1 3.6-.3 5.3-.3l-.9 1.5c-.2-.4-.4-.9-.5-1.2l-.3-1.2-.5-2.3c-.2-1.5-.4-3-.5-4.6l-.6-9.1 1.4.3c-1.4 2.9-2.8 5.9-4.3 8.8l-4.3 8.7z"/><path class="st2" d="M55.3 84.9h-10.6l8-17.9s1.1 15.1 2.6 17.9z"/><path class="st3" d="M82.7 98.3v-33c.4-.1 1-.1 1.7-.1s1.3 0 1.8.1v33c-.5.1-1.1.1-1.7.1-.8.1-1.3 0-1.8-.1zm20.3-14.5c.3-.9.9-2.7 2-5.4l5.2-13c.4-.1.9-.2 1.5-.2s1.1.1 1.7.2l.1.3-9.1 21.9v10.8c-.5.1-1.1.1-1.7.1-.7 0-1.2 0-1.7-.1v-11l-9.1-21.7c.8-.5 1.6-.7 2.4-.7.7 0 1.3.6 1.8 1.7l4.8 11.6c.6 1.3 1.2 3.1 1.9 5.4h.2zm29.5 5.8h-13.4l-2.9 8.8c-.4.1-.9.1-1.5.1s-1.1-.1-1.7-.2l-.1-.1 11-32.8c.5-.1 1.2-.1 2-.1s1.4 0 1.8.1l11.3 32.7c-.5.3-1.1.5-1.8.5s-1.2-.1-1.5-.4c-.3-.2-.5-.7-.8-1.4l-2.4-7.2zm-12.4-2.9h11.4l-3.2-9.6c-1-3.1-1.9-5.7-2.5-7.9h-.2c-.5 2-1 3.8-1.6 5.5l-3.9 12zm25.3-21.3l9.6-.1c3.3 0 5.9.8 7.7 2.5 1.8 1.7 2.7 4 2.7 7 0 2.2-.6 4.1-1.7 5.6s-2.7 2.6-4.7 3.2c1.3.5 2.4 1.7 3.2 3.9l2.6 6.7c.7 1.8 1.4 2.9 2 3.4-.5.8-1.2 1.2-2.4 1.2-.6 0-1.1-.2-1.5-.5s-.7-.9-1-1.7l-2.9-7.5c-.6-1.5-1.2-2.6-2-3.4-.8-.8-1.9-1.1-3.4-1.1h-5.2v14c-.5.1-1.1.1-1.7.1s-1.2 0-1.7-.1v-32.9l.4-.3zm3.1 2.7v13.3c2.8-.1 4.9-.1 6.5-.1 2.5 0 4.2-.6 5.3-1.9 1-1.3 1.5-2.8 1.5-4.7s-.5-3.4-1.5-4.7c-1-1.3-3-1.9-5.8-1.9h-6zm41.1 21.5h-13.4l-2.9 8.8c-.4.1-.9.1-1.5.1s-1.1-.1-1.7-.2l-.1-.1 11-32.8c.5-.1 1.2-.1 2-.1s1.4 0 1.8.1l11.1 32.8c-.5.3-1.1.5-1.8.5s-1.2-.1-1.5-.4c-.3-.2-.5-.7-.8-1.4l-2.2-7.3zm-12.4-2.9h11.4l-3.2-9.6c-1-3.1-1.9-5.7-2.5-7.9h-.2c-.5 2-1 3.8-1.6 5.5l-3.9 12z"/></svg>