<?xml version="1.0" encoding="utf-8"?>
<!-- Generator: Adobe Illustrator 18.1.1, SVG Export Plug-In . SVG Version: 6.00 Build 0)  -->
<!DOCTYPE svg PUBLIC "-//W3C//DTD SVG 1.1//EN" "http://www.w3.org/Graphics/SVG/1.1/DTD/svg11.dtd">
<svg version="1.1" id="Layer_1" xmlns="http://www.w3.org/2000/svg" xmlns:xlink="http://www.w3.org/1999/xlink" x="0px" y="0px"
	 width="216px" height="144px" viewBox="0 0 216 144" style="enable-background:new 0 0 216 144;" xml:space="preserve">
<style type="text/css">
	.st0{fill:#E6E7E8;}
	.st1{fill:#F46E7D;}
	.st2{fill:none;}
	.st3{fill:#7ED0EF;}
</style>
<g>
	<path class="st0" d="M211.8,105.7c0,0-88.5,0.5-124.9,0.3c-0.6,0-1.2,0-1.7,0C57,104.6,55.8,51.2,55.8,51.2s3.4-12.1,22.4-9.9
		c0,0,21.6-11.8,28.3-9c6.6,2.7,8.5,10.5,8.8,17.4c9.3,6.2,24.5,1.6,24.5,1.6c31.1-13.7,45.9-12.8,62.8,0
		C219.4,64,211.8,105.7,211.8,105.7z"/>
	<g>
		<path class="st0" d="M55.8,51.2L38.3,84.4c0,0-8.1,5.9-14.3,2.9c0,0,5.4,4.7,9.4,3.8c0,0-12,26.3-24.9,14
			c-4.5-4.3-1.1-8.9,0.3-11.2c0.9-1.5,1.9-2.2,8-6.1c0,0-7.7,0.7-7.8,0.7c-4.1,3.3-3.8,3.1-4.5,4.7c-2.2,4.8-4.1,13.2,2.8,16.5
			c18.4,8.9,27.2-8,35.9-19.4l12.5,0.2c0,0,3.7,14.5,16.9,15.3c2,0.1,6.4,0.2,12.5,0.3C57,104.6,55.8,51.2,55.8,51.2z M44.7,84.9
			L52.7,67c0,0,1,15,2.6,17.9H44.7z"/>
		<g>
			<g>
				<path class="st1" d="M55.7,51.6L38.6,84.6l0,0.1l-0.1,0c-1.1,0.8-2.2,1.4-3.3,2c-0.3,0.1-0.6,0.3-0.9,0.4
					c-0.3,0.1-0.6,0.3-0.9,0.4c-0.6,0.2-1.2,0.4-1.8,0.6c-0.3,0.1-0.6,0.1-0.9,0.2c-0.3,0.1-0.6,0.1-1,0.2c-0.3,0-0.6,0.1-1,0.1
					l-1,0c-0.3,0-0.7,0-1-0.1c-0.3,0-0.7-0.1-1-0.2c-0.3-0.1-0.7-0.1-1-0.3l-0.9-0.4l0.4-0.7c1.3,1.1,2.8,2,4.3,2.7
					c0.2,0.1,0.4,0.2,0.6,0.3c0.2,0.1,0.4,0.2,0.6,0.2c0.4,0.1,0.8,0.3,1.2,0.3c0.2,0.1,0.4,0.1,0.6,0.1c0.2,0,0.4,0.1,0.6,0
					c0.2,0,0.4,0,0.6,0l0.6-0.1l0.9-0.1l-0.4,0.8c-1.2,2.5-2.5,4.8-4,7.1c-1.5,2.2-3.2,4.4-5.2,6.3c-1,0.9-2.1,1.8-3.3,2.5
					c-1.2,0.7-2.5,1.3-3.9,1.6c-1.4,0.3-2.9,0.3-4.3-0.1c-1.4-0.4-2.6-1.1-3.8-1.9c-0.6-0.4-1.1-0.9-1.6-1.4
					c-0.2-0.3-0.5-0.5-0.7-0.8c-0.2-0.3-0.5-0.6-0.6-0.9c-0.8-1.3-1.1-2.8-0.9-4.3c0.2-1.5,0.8-2.8,1.5-4c0.3-0.6,0.7-1.2,1-1.7
					l0.3-0.4c0.1-0.2,0.2-0.3,0.3-0.5c0.2-0.3,0.5-0.6,0.8-0.8c1.1-1,2.2-1.7,3.3-2.4l3.4-2.2l0.1-0.1l0.1,0l0,0l0,0
					c0.1-0.2-0.5,1.6-0.3,0.8L16,88c0,0,0,0.1,0,0.2c0,0.1,0.2,0.3,0.3,0.3c0.1,0,0.1,0,0.2,0l-0.1,0l-0.1,0l-0.2,0l-1,0.1l-2,0.2
					l-2,0.2l-1,0.1l-0.5,0l-0.3,0l-0.1,0l0,0c-0.1,0-0.1,0-0.2,0c-0.2,0-0.3-0.1-0.4-0.2l1,0.1c-1.1,0.9-2.4,1.8-3.3,2.8
					c-0.2,0.2-0.4,0.5-0.5,0.7c-0.1,0.3-0.3,0.6-0.4,1c-0.3,0.7-0.6,1.3-0.8,2c-0.9,2.7-1.4,5.6-0.8,8.3c0.3,1.3,0.9,2.5,1.8,3.5
					c0.2,0.3,0.5,0.5,0.7,0.7c0.3,0.2,0.5,0.4,0.8,0.6c0.3,0.2,0.6,0.4,0.9,0.5l1,0.4c0.7,0.3,1.3,0.5,2,0.8
					c0.7,0.2,1.4,0.4,2.1,0.6c1.4,0.4,2.8,0.5,4.2,0.5c2.8,0,5.6-0.8,8-2.2c2.4-1.4,4.6-3.3,6.6-5.5c3.9-4.3,7.1-9.3,10.7-14
					l0.3-0.4l0.6,0l12.5,0.1l0.8,0l0.2,0.8c0.2,0.6,0.4,1.4,0.7,2c0.3,0.7,0.6,1.4,0.9,2c0.3,0.7,0.7,1.3,1.1,1.9
					c0.4,0.6,0.8,1.2,1.2,1.8c0.4,0.6,0.9,1.1,1.4,1.7c0.5,0.5,1,1,1.6,1.5l0.9,0.7c0.3,0.2,0.6,0.4,0.9,0.6c0.6,0.4,1.2,0.8,1.9,1
					l1,0.4c0.3,0.1,0.7,0.2,1,0.3l1,0.3c0.4,0.1,0.7,0.1,1.1,0.1l1.1,0.1c0.3,0,0.7,0,1.1,0l2.3,0.1l9.2,0.3l-0.1,2l-2.2-0.2
					c-0.7-0.1-1.4-0.3-2.2-0.5c-0.7-0.1-1.4-0.4-2.1-0.7l-1-0.4c-0.3-0.1-0.7-0.3-1-0.5c-1.3-0.6-2.6-1.5-3.7-2.3
					c-0.6-0.5-1.1-0.9-1.7-1.4l-1.5-1.5c-1-1.1-1.9-2.2-2.7-3.4c-0.4-0.6-0.8-1.2-1.2-1.8c-0.4-0.6-0.8-1.2-1.1-1.9
					c-0.7-1.3-1.3-2.5-1.9-3.8c-0.6-1.3-1.1-2.6-1.6-4c-0.5-1.3-0.9-2.7-1.3-4c-0.4-1.4-0.8-2.7-1.1-4.1c-0.3-1.4-0.7-2.8-0.9-4.1
					c-0.3-1.4-0.5-2.8-0.8-4.2C56.3,62.6,55.8,57.1,55.7,51.6z M55.9,51.2c0.2,2.8,0.5,5.6,0.8,8.4c0.4,2.8,0.8,5.6,1.4,8.3
					c0.3,1.4,0.6,2.7,0.9,4.1c0.3,1.4,0.7,2.7,1,4.1c0.4,1.4,0.8,2.7,1.2,4c0.5,1.3,0.9,2.6,1.4,3.9c0.5,1.3,1.1,2.6,1.6,3.8
					c0.6,1.2,1.2,2.5,1.9,3.7c0.3,0.6,0.7,1.2,1.1,1.8c0.4,0.6,0.7,1.2,1.2,1.7c0.8,1.1,1.7,2.2,2.6,3.2l1.5,1.4
					c0.5,0.4,1.1,0.9,1.6,1.3c1.1,0.8,2.2,1.5,3.4,2.1c0.3,0.1,0.6,0.3,0.9,0.4l0.9,0.3c0.6,0.2,1.3,0.5,1.9,0.6
					c0.7,0.1,1.3,0.3,2,0.4l2,0.2l-0.1,2l-9.2-0.1l-2.3,0c-0.4,0-0.7,0-1.2,0l-1.2-0.1c-0.4-0.1-0.8-0.1-1.2-0.2l-1.2-0.3
					c-0.4-0.1-0.8-0.2-1.2-0.3l-1.1-0.5c-0.8-0.3-1.5-0.7-2.2-1.1c-0.4-0.2-0.7-0.4-1-0.7l-1-0.7c-0.6-0.5-1.2-1.1-1.8-1.7
					c-0.5-0.6-1.1-1.2-1.6-1.9c-0.5-0.6-0.9-1.3-1.4-2c-0.4-0.7-0.8-1.4-1.2-2.1c-0.4-0.7-0.7-1.5-1-2.2c-0.3-0.8-0.6-1.5-0.8-2.3
					l1.1,0.8l-12.5-0.2l0.9-0.4c-3.6,4.6-6.8,9.7-11,14.1c-2.1,2.2-4.4,4.2-7.1,5.7c-2.7,1.5-5.8,2.4-8.9,2.4
					c-1.6,0-3.1-0.2-4.6-0.6c-0.8-0.2-1.5-0.4-2.2-0.6c-0.7-0.3-1.5-0.5-2.1-0.8l-1-0.5c-0.4-0.2-0.7-0.4-1.1-0.6
					c-0.4-0.2-0.7-0.4-1-0.7c-0.3-0.2-0.6-0.5-0.9-0.8c-1.1-1.2-1.9-2.7-2.2-4.3c-0.3-1.6-0.3-3.2-0.1-4.7c0.2-1.5,0.6-3,1.1-4.5
					c0.3-0.7,0.6-1.4,0.9-2.1c0.2-0.4,0.3-0.7,0.5-1.1c0.2-0.4,0.5-0.8,0.8-1.1c1.2-1.1,2.3-2,3.5-2.9l1,0.1
					c-0.1-0.1-0.2-0.2-0.3-0.2c-0.1,0-0.1,0-0.2,0l0,0l0.1,0l0.2,0l0.5,0l1-0.1l2-0.2l2-0.2l1-0.1l0.3,0l0.1,0l0.1,0
					c0.1,0,0.2,0,0.3,0c0.2,0,0.4,0.2,0.6,0.3c0.1,0.1,0.1,0.2,0.1,0.2l0.1,0c0.3-0.7-0.3,1-0.3,0.8l0,0l0,0l-0.1,0L17,88.5
					l-3.4,2.2c-1.1,0.7-2.2,1.5-3.2,2.3c-0.2,0.2-0.4,0.4-0.6,0.6c-0.1,0.1-0.2,0.2-0.3,0.3l-0.3,0.4c-0.4,0.6-0.7,1.1-1,1.7
					c-0.7,1.1-1.1,2.3-1.3,3.5C6.8,100.7,7,102,7.6,103c0.1,0.3,0.3,0.5,0.5,0.7c0.2,0.2,0.4,0.5,0.7,0.7c0.4,0.4,0.9,0.9,1.4,1.3
					c1,0.8,2.2,1.4,3.3,1.7c1.2,0.4,2.5,0.4,3.7,0.1c2.5-0.5,4.7-2,6.6-3.8c1.9-1.8,3.6-3.9,5.1-6c1.5-2.2,2.8-4.5,4-6.9l0.5,0.6
					l-0.7,0.1c-0.2,0-0.5,0-0.7,0c-0.2,0-0.5,0-0.7-0.1c-0.2,0-0.5-0.1-0.7-0.1c-0.4-0.1-0.9-0.2-1.3-0.4c-0.2-0.1-0.4-0.2-0.6-0.3
					c-0.2-0.1-0.4-0.2-0.6-0.3c-0.8-0.4-1.6-0.8-2.3-1.3c-0.7-0.5-1.4-1-2.1-1.6l-1.8-1.5l2.2,0.9l0.8,0.3c0.3,0.1,0.6,0.2,0.9,0.2
					c0.3,0.1,0.6,0.2,0.9,0.2l0.9,0.1l0.9,0c0.3,0,0.6-0.1,0.9-0.1c0.3,0,0.6-0.1,0.9-0.2c0.3-0.1,0.6-0.1,0.9-0.2
					c0.6-0.2,1.2-0.3,1.8-0.6c0.3-0.1,0.6-0.2,0.9-0.3c0.3-0.1,0.6-0.2,0.9-0.4c1.1-0.5,2.2-1.2,3.3-1.9L38,84.3l17.8-33.4
					L55.9,51.2z"/>
				<path class="st1" d="M44.5,85l3.8-9.2c1.2-3,2.5-6,3.8-9.1l1.1-2.7l0.3,3c0.3,3,0.6,6,1.1,9c0.2,1.5,0.5,3,0.7,4.4
					c0.1,0.7,0.2,1.5,0.4,2.2c0.1,0.4,0.2,0.7,0.2,1c0.1,0.4,0.2,0.6,0.3,0.9l0.5,1.6L55.3,86c-1.8-0.1-3.6-0.2-5.3-0.3
					c-0.9-0.1-1.8-0.2-2.7-0.3c-0.9-0.1-1.8-0.2-2.7-0.3L44.5,85z M44.9,84.8c0.8-0.1,1.7-0.2,2.5-0.3c0.9-0.1,1.8-0.2,2.7-0.3
					c1.8-0.1,3.6-0.3,5.3-0.3l-0.9,1.5c-0.2-0.4-0.4-0.9-0.5-1.2c-0.1-0.4-0.2-0.8-0.3-1.2c-0.2-0.8-0.3-1.5-0.5-2.3
					c-0.2-1.5-0.4-3-0.5-4.6c-0.2-3-0.4-6.1-0.6-9.1l1.4,0.3c-1.4,2.9-2.8,5.9-4.3,8.8L44.9,84.8z"/>
			</g>
		</g>
	</g>
	<path class="st2" d="M55.3,84.9H44.7L52.7,67C52.7,67,53.8,82.1,55.3,84.9z"/>
</g>
<g>
	<path class="st3" d="M82.7,98.3v-33c0.4-0.1,1-0.1,1.7-0.1c0.7,0,1.3,0,1.8,0.1v33c-0.5,0.1-1.1,0.1-1.7,0.1
		C83.7,98.5,83.2,98.4,82.7,98.3z"/>
	<path class="st3" d="M103,83.8c0.3-0.9,0.9-2.7,2-5.4l5.2-13c0.4-0.1,0.9-0.2,1.5-0.2s1.1,0.1,1.7,0.2l0.1,0.3l-9.1,21.9v10.8
		c-0.5,0.1-1.1,0.1-1.7,0.1c-0.7,0-1.2,0-1.7-0.1V87.4l-9.1-21.7c0.8-0.5,1.6-0.7,2.4-0.7c0.7,0,1.3,0.6,1.8,1.7l4.8,11.6
		c0.6,1.3,1.2,3.1,1.9,5.4H103z"/>
	<path class="st3" d="M132.5,89.6l-3.5,0h-6.5l-3.4,0l-2.9,8.8c-0.4,0.1-0.9,0.1-1.5,0.1c-0.6,0-1.1-0.1-1.7-0.2l-0.1-0.1l11-32.8
		c0.5-0.1,1.2-0.1,2-0.1c0.8,0,1.4,0,1.8,0.1L139,98.1c-0.5,0.3-1.1,0.5-1.8,0.5c-0.7,0-1.2-0.1-1.5-0.4c-0.3-0.2-0.5-0.7-0.8-1.4
		L132.5,89.6z M120.1,86.7l2.8,0h5.7c0,0,0.5,0,1.3,0c0.8,0,1.4,0,1.6,0l-3.2-9.6c-1-3.1-1.9-5.7-2.5-7.9h-0.2c-0.5,2-1,3.8-1.6,5.5
		L120.1,86.7z"/>
	<path class="st3" d="M145.4,65.4l9.6-0.1c3.3,0,5.9,0.8,7.7,2.5c1.8,1.7,2.7,4,2.7,7c0,2.2-0.6,4.1-1.7,5.6
		c-1.1,1.5-2.7,2.6-4.7,3.2c1.3,0.5,2.4,1.7,3.2,3.9l2.6,6.7c0.7,1.8,1.4,2.9,2,3.4c-0.5,0.8-1.2,1.2-2.4,1.2
		c-0.6,0-1.1-0.2-1.5-0.5s-0.7-0.9-1-1.7l-2.9-7.5c-0.6-1.5-1.2-2.6-2-3.4c-0.8-0.8-1.9-1.1-3.4-1.1h-5.2v14
		c-0.5,0.1-1.1,0.1-1.7,0.1s-1.2,0-1.7-0.1V65.7L145.4,65.4z M148.5,68.1v13.3c2.8-0.1,4.9-0.1,6.5-0.1c2.5,0,4.2-0.6,5.3-1.9
		c1-1.3,1.5-2.8,1.5-4.7s-0.5-3.4-1.5-4.7c-1-1.3-3-1.9-5.8-1.9C151.7,68.1,149.7,68.1,148.5,68.1z"/>
	<path class="st3" d="M189.6,89.6l-3.5,0h-6.5l-3.4,0l-2.9,8.8c-0.4,0.1-0.9,0.1-1.5,0.1c-0.6,0-1.1-0.1-1.7-0.2l-0.1-0.1l11-32.8
		c0.5-0.1,1.2-0.1,2-0.1c0.8,0,1.4,0,1.8,0.1l11.1,32.8c-0.5,0.3-1.1,0.5-1.8,0.5c-0.7,0-1.2-0.1-1.5-0.4c-0.3-0.2-0.5-0.7-0.8-1.4
		L189.6,89.6z M177.2,86.7l2.8,0h5.7c0,0,0.5,0,1.3,0c0.8,0,1.4,0,1.6,0l-3.2-9.6c-1-3.1-1.9-5.7-2.5-7.9h-0.2c-0.5,2-1,3.8-1.6,5.5
		L177.2,86.7z"/>
</g>
<g>
</g>
<g>
</g>
<g>
</g>
<g>
</g>
<g>
</g>
<g>
</g>
</svg>
