<?xml version="1.0" encoding="utf-8"?>
<!-- Generator: Adobe Illustrator 18.1.1, SVG Export Plug-In . SVG Version: 6.00 Build 0)  -->
<!DOCTYPE svg PUBLIC "-//W3C//DTD SVG 1.1//EN" "http://www.w3.org/Graphics/SVG/1.1/DTD/svg11.dtd">
<svg version="1.1" id="Layer_1" xmlns="http://www.w3.org/2000/svg" xmlns:xlink="http://www.w3.org/1999/xlink" x="0px" y="0px"
	 width="216px" height="80.8px" viewBox="-197 357.3 216 80.8" enable-background="new -197 357.3 216 80.8" xml:space="preserve">
<path fill="#E6E7E8" d="M14.8,430.7c0,0-88.5,0.5-124.9,0.3h-1.7c-28.2-1.4-29.4-54.8-29.4-54.8s3.4-12.1,22.4-9.9
	c0,0,21.6-11.8,28.3-9c6.6,2.7,8.5,10.5,8.8,17.4c9.3,6.2,24.5,1.6,24.5,1.6c31.1-13.7,45.9-12.8,62.8,0
	C22.4,389,14.8,430.7,14.8,430.7z M-141.2,376.2l-17.5,33.2c0,0-8.1,5.9-14.3,2.9c0,0,5.4,4.7,9.4,3.8c0,0-12,26.3-24.9,14
	c-4.5-4.3-1.1-8.9,0.3-11.2c0.9-1.5,1.9-2.2,8-6.1c0,0-7.7,0.7-7.8,0.7c-4.1,3.3-3.8,3.1-4.5,4.7c-2.2,4.8-4.1,13.2,2.8,16.5
	c18.4,8.9,27.2-8,35.9-19.4l12.5,0.2c0,0,3.7,14.5,16.9,15.3c2,0.1,6.4,0.2,12.5,0.3C-140,429.6-141.2,376.2-141.2,376.2z
	 M-152.3,409.9l8-17.9c0,0,1,15,2.6,17.9H-152.3z"/>
<path fill="#F46E7D" d="M-141.3,376.6l-17.1,33v0.1h-0.1c-1.1,0.8-2.2,1.4-3.3,2l-0.9,0.4l-0.9,0.4l-1.8,0.6l-0.9,0.2
	c-0.3,0.1-0.6,0.1-1,0.2c-0.3,0-0.6,0.1-1,0.1h-1c-0.3,0-0.7,0-1-0.1c-0.3,0-0.7-0.1-1-0.2c-0.3-0.1-0.7-0.1-1-0.3l-0.9-0.4l0.4-0.7
	c1.3,1.1,2.8,2,4.3,2.7l0.6,0.3c0.2,0.1,0.4,0.2,0.6,0.2c0.4,0.1,0.8,0.3,1.2,0.3c0.2,0.1,0.4,0.1,0.6,0.1s0.4,0.1,0.6,0h0.6
	l0.6-0.1l0.9-0.1l-0.4,0.8c-1.2,2.5-2.5,4.8-4,7.1c-1.5,2.2-3.2,4.4-5.2,6.3c-1,0.9-2.1,1.8-3.3,2.5c-1.2,0.7-2.5,1.3-3.9,1.6
	c-1.4,0.3-2.9,0.3-4.3-0.1c-1.4-0.4-2.6-1.1-3.8-1.9c-0.6-0.4-1.1-0.9-1.6-1.4l-0.7-0.8c-0.2-0.3-0.5-0.6-0.6-0.9
	c-0.8-1.3-1.1-2.8-0.9-4.3s0.8-2.8,1.5-4c0.3-0.6,0.7-1.2,1-1.7l0.3-0.4l0.3-0.5c0.2-0.3,0.5-0.6,0.8-0.8c1.1-1,2.2-1.7,3.3-2.4
	l3.4-2.2l0.1-0.1h0.1c0.1-0.2-0.5,1.6-0.3,0.8v0.3c0,0.1,0.2,0.3,0.3,0.3h0.2h-0.1h-0.1h-0.2l-1,0.1l-2,0.2l-2,0.2l-1,0.1h-1.1
	c-0.2,0-0.3-0.1-0.4-0.2l1,0.1c-1.1,0.9-2.4,1.8-3.3,2.8c-0.2,0.2-0.4,0.5-0.5,0.7c-0.1,0.3-0.3,0.6-0.4,1c-0.3,0.7-0.6,1.3-0.8,2
	c-0.9,2.7-1.4,5.6-0.8,8.3c0.3,1.3,0.9,2.5,1.8,3.5c0.2,0.3,0.5,0.5,0.7,0.7l0.8,0.6c0.3,0.2,0.6,0.4,0.9,0.5l1,0.4l2,0.8l2.1,0.6
	c1.4,0.4,2.8,0.5,4.2,0.5c2.8,0,5.6-0.8,8-2.2c2.4-1.4,4.6-3.3,6.6-5.5c3.9-4.3,7.1-9.3,10.7-14l0.3-0.4h0.6l12.5,0.1h0.8l0.2,0.8
	c0.2,0.6,0.4,1.4,0.7,2c0.3,0.7,0.6,1.4,0.9,2c0.3,0.7,0.7,1.3,1.1,1.9l1.2,1.8c0.4,0.6,0.9,1.1,1.4,1.7c0.5,0.5,1,1,1.6,1.5
	l0.9,0.7l0.9,0.6c0.6,0.4,1.2,0.8,1.9,1l1,0.4l1,0.3l1,0.3c0.4,0.1,0.7,0.1,1.1,0.1l1.1,0.1h1.1l2.3,0.1l9.2,0.3l-0.1,2l-2.2-0.2
	c-0.7-0.1-1.4-0.3-2.2-0.5c-0.7-0.1-1.4-0.4-2.1-0.7l-1-0.4c-0.3-0.1-0.7-0.3-1-0.5c-1.3-0.6-2.6-1.5-3.7-2.3l-1.7-1.4l-1.5-1.5
	c-1-1.1-1.9-2.2-2.7-3.4l-1.2-1.8c-0.4-0.6-0.8-1.2-1.1-1.9c-0.7-1.3-1.3-2.5-1.9-3.8c-0.6-1.3-1.1-2.6-1.6-4
	c-0.5-1.3-0.9-2.7-1.3-4c-0.4-1.4-0.8-2.7-1.1-4.1s-0.7-2.8-0.9-4.1l-0.8-4.2C-140.7,387.6-141.2,382.1-141.3,376.6L-141.3,376.6z
	 M-141.1,376.2c0.2,2.8,0.5,5.6,0.8,8.4c0.4,2.8,0.8,5.6,1.4,8.3l0.9,4.1l1,4.1c0.4,1.4,0.8,2.7,1.2,4l1.4,3.9
	c0.5,1.3,1.1,2.6,1.6,3.8c0.6,1.2,1.2,2.5,1.9,3.7c0.3,0.6,0.7,1.2,1.1,1.8c0.4,0.6,0.7,1.2,1.2,1.7c0.8,1.1,1.7,2.2,2.6,3.2
	l1.5,1.4l1.6,1.3c1.1,0.8,2.2,1.5,3.4,2.1l0.9,0.4l0.9,0.3c0.6,0.2,1.3,0.5,1.9,0.6l2,0.4l2,0.2l-0.1,2l-9.2-0.1h-3.5l-1.2-0.1
	l-1.2-0.2l-1.2-0.3l-1.2-0.3l-1.1-0.5c-0.8-0.3-1.5-0.7-2.2-1.1c-0.4-0.2-0.7-0.4-1-0.7l-1-0.7c-0.6-0.5-1.2-1.1-1.8-1.7
	c-0.5-0.6-1.1-1.2-1.6-1.9c-0.5-0.6-0.9-1.3-1.4-2l-1.2-2.1c-0.4-0.7-0.7-1.5-1-2.2c-0.3-0.8-0.6-1.5-0.8-2.3l1.1,0.8l-12.5-0.2
	l0.9-0.4c-3.6,4.6-6.8,9.7-11,14.1c-2.1,2.2-4.4,4.2-7.1,5.7s-5.8,2.4-8.9,2.4c-1.6,0-3.1-0.2-4.6-0.6c-0.8-0.2-1.5-0.4-2.2-0.6
	c-0.7-0.3-1.5-0.5-2.1-0.8l-1-0.5l-1.1-0.6c-0.4-0.2-0.7-0.4-1-0.7c-0.3-0.2-0.6-0.5-0.9-0.8c-1.1-1.2-1.9-2.7-2.2-4.3
	c-0.3-1.6-0.3-3.2-0.1-4.7c0.2-1.5,0.6-3,1.1-4.5l0.9-2.1l0.5-1.1c0.2-0.4,0.5-0.8,0.8-1.1c1.2-1.1,2.3-2,3.5-2.9l1,0.1
	c-0.1-0.1-0.2-0.2-0.3-0.2h-0.2h0.1h0.2h0.5l1-0.1l2-0.2l2-0.2l1-0.1h0.8c0.2,0,0.4,0.2,0.6,0.3c0.1,0.1,0.1,0.2,0.1,0.2h0.1
	c0.3-0.7-0.3,1-0.3,0.8h-0.1l-0.1,0.1l-3.4,2.2c-1.1,0.7-2.2,1.5-3.2,2.3l-0.6,0.6l-0.3,0.3l-0.3,0.4c-0.4,0.6-0.7,1.1-1,1.7
	c-0.7,1.1-1.1,2.3-1.3,3.5c-0.1,1.2,0.1,2.5,0.7,3.5c0.1,0.3,0.3,0.5,0.5,0.7c0.2,0.2,0.4,0.5,0.7,0.7c0.4,0.4,0.9,0.9,1.4,1.3
	c1,0.8,2.2,1.4,3.3,1.7c1.2,0.4,2.5,0.4,3.7,0.1c2.5-0.5,4.7-2,6.6-3.8c1.9-1.8,3.6-3.9,5.1-6c1.5-2.2,2.8-4.5,4-6.9l0.5,0.6
	l-0.7,0.1h-0.7c-0.2,0-0.5,0-0.7-0.1l-0.7-0.1c-0.4-0.1-0.9-0.2-1.3-0.4l-0.6-0.3l-0.6-0.3c-0.8-0.4-1.6-0.8-2.3-1.3
	c-0.7-0.5-1.4-1-2.1-1.6l-1.8-1.5l2.2,0.9l0.8,0.3c0.3,0.1,0.6,0.2,0.9,0.2c0.3,0.1,0.6,0.2,0.9,0.2l0.9,0.1h0.9l0.9-0.1
	c0.3,0,0.6-0.1,0.9-0.2l0.9-0.2c0.6-0.2,1.2-0.3,1.8-0.6l0.9-0.3c0.3-0.1,0.6-0.2,0.9-0.4c1.1-0.5,2.2-1.2,3.3-1.9l-0.1,0.4
	l17.8-33.4L-141.1,376.2L-141.1,376.2z M-152.5,410l3.8-9.2c1.2-3,2.5-6,3.8-9.1l1.1-2.7l0.3,3c0.3,3,0.6,6,1.1,9
	c0.2,1.5,0.5,3,0.7,4.4c0.1,0.7,0.2,1.5,0.4,2.2c0.1,0.4,0.2,0.7,0.2,1c0.1,0.4,0.2,0.6,0.3,0.9l0.5,1.6l-1.4-0.1
	c-1.8-0.1-3.6-0.2-5.3-0.3l-2.7-0.3L-152.5,410C-152.4,410.1-152.5,410-152.5,410z M-152.1,409.8l2.5-0.3l2.7-0.3
	c1.8-0.1,3.6-0.3,5.3-0.3l-0.9,1.5c-0.2-0.4-0.4-0.9-0.5-1.2l-0.3-1.2l-0.5-2.3c-0.2-1.5-0.4-3-0.5-4.6l-0.6-9.1l1.4,0.3
	c-1.4,2.9-2.8,5.9-4.3,8.8C-147.8,401.1-152.1,409.8-152.1,409.8z"/>
<path fill="none" d="M-141.7,409.9h-10.6l8-17.9C-144.3,392-143.2,407.1-141.7,409.9z"/>
<path fill="#7ED0EF" d="M-114.3,423.3v-33c0.4-0.1,1-0.1,1.7-0.1s1.3,0,1.8,0.1v33c-0.5,0.1-1.1,0.1-1.7,0.1
	C-113.3,423.5-113.8,423.4-114.3,423.3z M-94,408.8c0.3-0.9,0.9-2.7,2-5.4l5.2-13c0.4-0.1,0.9-0.2,1.5-0.2s1.1,0.1,1.7,0.2l0.1,0.3
	l-9.1,21.9v10.8c-0.5,0.1-1.1,0.1-1.7,0.1c-0.7,0-1.2,0-1.7-0.1v-11l-9.1-21.7c0.8-0.5,1.6-0.7,2.4-0.7c0.7,0,1.3,0.6,1.8,1.7
	l4.8,11.6c0.6,1.3,1.2,3.1,1.9,5.4L-94,408.8L-94,408.8z M-64.5,414.6h-13.4l-2.9,8.8c-0.4,0.1-0.9,0.1-1.5,0.1s-1.1-0.1-1.7-0.2
	l-0.1-0.1l11-32.8c0.5-0.1,1.2-0.1,2-0.1s1.4,0,1.8,0.1l11.3,32.7c-0.5,0.3-1.1,0.5-1.8,0.5s-1.2-0.1-1.5-0.4
	c-0.3-0.2-0.5-0.7-0.8-1.4L-64.5,414.6z M-76.9,411.7h11.4l-3.2-9.6c-1-3.1-1.9-5.7-2.5-7.9h-0.2c-0.5,2-1,3.8-1.6,5.5
	C-73,399.7-76.9,411.7-76.9,411.7z M-51.6,390.4l9.6-0.1c3.3,0,5.9,0.8,7.7,2.5c1.8,1.7,2.7,4,2.7,7c0,2.2-0.6,4.1-1.7,5.6
	s-2.7,2.6-4.7,3.2c1.3,0.5,2.4,1.7,3.2,3.9l2.6,6.7c0.7,1.8,1.4,2.9,2,3.4c-0.5,0.8-1.2,1.2-2.4,1.2c-0.6,0-1.1-0.2-1.5-0.5
	s-0.7-0.9-1-1.7l-2.9-7.5c-0.6-1.5-1.2-2.6-2-3.4c-0.8-0.8-1.9-1.1-3.4-1.1h-5.2v14c-0.5,0.1-1.1,0.1-1.7,0.1s-1.2,0-1.7-0.1v-32.9
	L-51.6,390.4L-51.6,390.4z M-48.5,393.1v13.3c2.8-0.1,4.9-0.1,6.5-0.1c2.5,0,4.2-0.6,5.3-1.9c1-1.3,1.5-2.8,1.5-4.7
	c0-1.9-0.5-3.4-1.5-4.7s-3-1.9-5.8-1.9C-42.5,393.1-48.5,393.1-48.5,393.1z M-7.4,414.6h-13.4l-2.9,8.8c-0.4,0.1-0.9,0.1-1.5,0.1
	s-1.1-0.1-1.7-0.2l-0.1-0.1l11-32.8c0.5-0.1,1.2-0.1,2-0.1s1.4,0,1.8,0.1l11.1,32.8c-0.5,0.3-1.1,0.5-1.8,0.5s-1.2-0.1-1.5-0.4
	c-0.3-0.2-0.5-0.7-0.8-1.4L-7.4,414.6L-7.4,414.6z M-19.8,411.7h11.4l-3.2-9.6c-1-3.1-1.9-5.7-2.5-7.9h-0.2c-0.5,2-1,3.8-1.6,5.5
	L-19.8,411.7z"/>
</svg>
