<?xml version="1.0" encoding="utf-8"?>
<!-- Generator: Adobe Illustrator 18.1.1, SVG Export Plug-In . SVG Version: 6.00 Build 0)  -->
<!DOCTYPE svg PUBLIC "-//W3C//DTD SVG 1.1//EN" "http://www.w3.org/Graphics/SVG/1.1/DTD/svg11.dtd">
<svg version="1.1" id="Layer_1" xmlns="http://www.w3.org/2000/svg" xmlns:xlink="http://www.w3.org/1999/xlink" x="0px" y="0px"
	 width="86.7px" height="26.5px" viewBox="0 0 86.7 26.5" style="enable-background:new 0 0 86.7 26.5;" xml:space="preserve">
<style type="text/css">
	.st0{fill:#FBD379;}
</style>
<g>
	<polygon class="st0" points="15.6,7.6 17.5,11.5 21.8,12.1 18.7,15.2 19.4,19.4 15.6,17.4 11.8,19.4 12.5,15.2 9.4,12.1 13.7,11.5 
			"/>
	<polygon class="st0" points="30,7.6 31.9,11.5 36.2,12.1 33.1,15.2 33.8,19.4 30,17.4 26.2,19.4 26.9,15.2 23.8,12.1 28.1,11.5 	
		"/>
	<polygon class="st0" points="44.9,7.6 46.8,11.5 51.1,12.1 48,15.2 48.8,19.4 44.9,17.4 41.1,19.4 41.8,15.2 38.7,12.1 43,11.5 	
		"/>
	<polygon class="st0" points="59.4,7.6 61.3,11.5 65.6,12.1 62.5,15.2 63.2,19.4 59.4,17.4 55.6,19.4 56.3,15.2 53.2,12.1 
		57.5,11.5 	"/>
	<polygon class="st0" points="73.5,7.6 75.4,11.5 79.7,12.1 76.6,15.2 77.3,19.4 73.5,17.4 69.7,19.4 70.4,15.2 67.3,12.1 
		71.6,11.5 	"/>
</g>
<g>
</g>
<g>
</g>
<g>
</g>
<g>
</g>
<g>
</g>
<g>
</g>
</svg>
