<svg xmlns="http://www.w3.org/2000/svg" width="78" height="26.5" viewBox="0 0 78 26.5"><style type="text/css">.st0{fill:#FBD379;}</style><path class="st0" d="M6.2 8.2l1.9 3.9 4.3.6-3.1 3 .7 4.3-3.8-2-3.8 2 .7-4.3-3.1-3 4.3-.6zm14.4 0l1.9 3.9 4.3.6-3.1 3 .7 4.3-3.8-2-3.8 2 .7-4.3-3.1-3 4.3-.6zm14.9 0l1.9 3.9 4.3.6-3.1 3 .8 4.3-3.9-2-3.8 2 .7-4.3-3.1-3 4.3-.6zm14.5 0l1.9 3.9 4.3.6-3.1 3 .7 4.3-3.8-2-3.8 2 .7-4.3-3.1-3 4.3-.6zm14.1 0l1.9 3.9 4.3.6-3.1 3 .7 4.3-3.8-2-3.8 2 .7-4.3-3.1-3 4.3-.6z"/></svg>