<?xml version="1.0" encoding="utf-8"?>
<!-- Generator: Adobe Illustrator 18.1.1, SVG Export Plug-In . SVG Version: 6.00 Build 0)  -->
<!DOCTYPE svg PUBLIC "-//W3C//DTD SVG 1.1//EN" "http://www.w3.org/Graphics/SVG/1.1/DTD/svg11.dtd">
<svg version="1.1" id="Layer_1" xmlns="http://www.w3.org/2000/svg" xmlns:xlink="http://www.w3.org/1999/xlink" x="0px" y="0px"
	 width="235.8px" height="26.5px" viewBox="0 0 235.8 26.5" style="enable-background:new 0 0 235.8 26.5;" xml:space="preserve">
<style type="text/css">
	.st0{fill:#FBD379;}
</style>
<g>
	<polygon class="st0" points="6.2,8.2 8.1,12.1 12.4,12.7 9.3,15.7 10,20 6.2,18 2.4,20 3.1,15.7 0,12.7 4.3,12.1 	"/>
	<polygon class="st0" points="20.6,8.2 22.5,12.1 26.8,12.7 23.7,15.7 24.4,20 20.6,18 16.8,20 17.5,15.7 14.4,12.7 18.7,12.1 	"/>
	<polygon class="st0" points="35.5,8.2 37.4,12.1 41.7,12.7 38.6,15.7 39.4,20 35.5,18 31.7,20 32.4,15.7 29.3,12.7 33.6,12.1 	"/>
	<polygon class="st0" points="50,8.2 51.9,12.1 56.2,12.7 53.1,15.7 53.8,20 50,18 46.2,20 46.9,15.7 43.8,12.7 48.1,12.1 	"/>
	<polygon class="st0" points="64.1,8.2 66,12.1 70.3,12.7 67.2,15.7 67.9,20 64.1,18 60.3,20 61,15.7 57.9,12.7 62.2,12.1 	"/>
</g>
<polygon class="st0" points="166.5,6.9 168.4,10.8 172.7,11.4 169.6,14.5 170.4,18.7 166.5,16.7 162.7,18.7 163.4,14.5 160.3,11.4 
	164.6,10.8 "/>
<polygon class="st0" points="180.9,6.9 182.8,10.8 187.1,11.4 184,14.5 184.8,18.7 180.9,16.7 177.1,18.7 177.8,14.5 174.7,11.4 
	179,10.8 "/>
<polygon class="st0" points="195.8,6.9 197.7,10.8 202,11.4 198.9,14.5 199.7,18.7 195.8,16.7 192,18.7 192.7,14.5 189.6,11.4 
	193.9,10.8 "/>
<polygon class="st0" points="210.3,6.9 212.2,10.8 216.5,11.4 213.4,14.5 214.2,18.7 210.3,16.7 206.5,18.7 207.2,14.5 204.1,11.4 
	208.4,10.8 "/>
<polygon class="st0" points="224.4,6.9 226.3,10.8 230.6,11.4 227.5,14.5 228.3,18.7 224.4,16.7 220.6,18.7 221.3,14.5 218.2,11.4 
	222.5,10.8 "/>
<g>
</g>
<g>
</g>
<g>
</g>
<g>
</g>
<g>
</g>
<g>
</g>
</svg>
