<?xml version="1.0" encoding="utf-8"?>
<!-- Generator: Adobe Illustrator 18.1.1, SVG Export Plug-In . SVG Version: 6.00 Build 0)  -->
<!DOCTYPE svg PUBLIC "-//W3C//DTD SVG 1.1//EN" "http://www.w3.org/Graphics/SVG/1.1/DTD/svg11.dtd">
<svg version="1.1" id="Layer_1" xmlns="http://www.w3.org/2000/svg" xmlns:xlink="http://www.w3.org/1999/xlink" x="0px" y="0px"
	 width="78px" height="26.5px" viewBox="0 0 78 26.5" style="enable-background:new 0 0 78 26.5;" xml:space="preserve">
<style type="text/css">
	.st0{fill:#FBD379;}
</style>
<g>
	<polygon class="st0" points="6.2,8.2 8.1,12.1 12.4,12.7 9.3,15.7 10,20 6.2,18 2.4,20 3.1,15.7 0,12.7 4.3,12.1 	"/>
	<polygon class="st0" points="20.6,8.2 22.5,12.1 26.8,12.7 23.7,15.7 24.4,20 20.6,18 16.8,20 17.5,15.7 14.4,12.7 18.7,12.1 	"/>
	<polygon class="st0" points="35.5,8.2 37.4,12.1 41.7,12.7 38.6,15.7 39.4,20 35.5,18 31.7,20 32.4,15.7 29.3,12.7 33.6,12.1 	"/>
	<polygon class="st0" points="50,8.2 51.9,12.1 56.2,12.7 53.1,15.7 53.8,20 50,18 46.2,20 46.9,15.7 43.8,12.7 48.1,12.1 	"/>
	<polygon class="st0" points="64.1,8.2 66,12.1 70.3,12.7 67.2,15.7 67.9,20 64.1,18 60.3,20 61,15.7 57.9,12.7 62.2,12.1 	"/>
</g>
<g>
</g>
<g>
</g>
<g>
</g>
<g>
</g>
<g>
</g>
<g>
</g>
</svg>
